<svg xmlns="http://www.w3.org/2000/svg" width="10" height="10" viewBox="0 0 10 10" fill="none">
  <g clip-path="url(#clip0_1_79)">
    <path d="M7.14384 1.13247C6.73565 1.13882 6.33636 1.25276 5.9863 1.4628C5.63623 1.67284 5.34779 1.97153 5.15009 2.32872C4.9524 1.97153 4.66396 1.67284 4.31389 1.4628C3.96383 1.25276 3.56454 1.13882 3.15634 1.13247C2.50564 1.16074 1.89256 1.4454 1.45107 1.92425C1.00957 2.40311 0.775535 3.03723 0.800095 3.68809C0.800095 6.14403 4.77164 8.98059 4.94057 9.10094L5.15009 9.2492L5.35962 9.10094C5.52854 8.98132 9.50009 6.14403 9.50009 3.68809C9.52465 3.03723 9.29062 2.40311 8.84912 1.92425C8.40763 1.4454 7.79455 1.16074 7.14384 1.13247Z" fill="white"/>
  </g>
  <defs>
    <clipPath id="clip0_1_79">
      <path d="M0.799988 1.8C0.799988 1.24771 1.2477 0.799999 1.79999 0.799999H8.49999C9.05227 0.799999 9.49999 1.24771 9.49999 1.8V8.5C9.49999 9.05228 9.05227 9.5 8.49999 9.5H1.79999C1.2477 9.5 0.799988 9.05228 0.799988 8.5V1.8Z" fill="white"/>
    </clipPath>
  </defs>
</svg>